Coordinates
version=1
nRows=24
nColumns=24
inDegrees=yes

Units are S.I. units (second, meters, Newtons, ...)
Angles are in degrees.

endheader
time	pelvis_tilt	pelvis_list	pelvis_rotation	pelvis_tx	pelvis_ty	pelvis_tz	hip_flexion_r	hip_adduction_r	hip_rotation_r	knee_angle_r	ankle_angle_r	subtalar_angle_r	mtp_angle_r	hip_flexion_l	hip_adduction_l	hip_rotation_l	knee_angle_l	ankle_angle_l	subtalar_angle_l	mtp_angle_l	lumbar_extension	lumbar_bending	lumbar_rotation
      3.49000000	     68.04947539	     -2.19340671	      4.04079998	      0.65237345	      1.01338486	     -0.21549155	     -5.34174596	     -2.74158488	     10.36161429	    -26.65048466	    -13.78409282	     26.19361368	     57.61099404	     -7.72687187	    -14.76107880	      6.46430926	    -61.08008813	    -10.01307018	     30.15310423	     26.42791626	      0.00000000	      0.00000000	      0.00000000
      3.50000000	     68.12851086	     -2.17531701	      4.08346188	      0.65241339	      1.01345326	     -0.21551056	     -5.61915199	     -2.64342071	     10.01716829	    -27.22434184	    -13.75325118	     26.72986707	     57.91245570	     -7.81554159	    -14.78476602	      6.50529521	    -61.03982298	    -10.01680467	     30.12530507	     26.47571472	      0.00000000	      0.00000000	      0.00000000
      3.51000000	     68.16990226	     -2.15491628	      4.12162114	      0.65249195	      1.01350190	     -0.21550689	     -5.85931548	     -2.59600235	      9.53983195	    -27.93621653	    -13.74825107	     27.39211547	     58.28607122	     -7.86181976	    -14.80512936	      6.54126311	    -61.01234350	    -10.02524225	     30.10731427	     26.52710867	      0.00000000	      0.00000000	      0.00000000
      3.52000000	     68.17442700	     -2.13258850	      4.15630009	      0.65260887	      1.01352815	     -0.21547664	     -6.05683002	     -2.60064703	      8.95379757	    -28.78947724	    -13.77684594	     28.15973069	     58.77329801	     -7.86490393	    -14.82163179	      6.57378329	    -61.00055797	    -10.03478574	     30.09915464	     26.57695065	      0.00000000	      0.00000000	      0.00000000
      3.53000000	     68.14900540	     -2.10748376	      4.18978716	      0.65276549	      1.01352916	     -0.21541780	     -6.21262172	     -2.65802715	      8.28611822	    -29.78727011	    -13.84773337	     29.00582280	     59.42231226	     -7.83048219	    -14.83465194	      6.60582144	    -61.00485628	    -10.04185558	     30.10006087	     26.62042260	      0.00000000	      0.00000000	      0.00000000
      3.54000000	     68.10456406	     -2.07763758	      4.22514582	      0.65294893	      1.01349983	     -0.21532837	     -6.33382824	     -2.76821241	      7.56473171	    -30.93025708	    -13.96897065	     29.89821584	     60.28461242	     -7.76928939	    -14.84464645	      6.64053058	    -61.02259642	    -10.04291879	     30.10859585	     26.65293219	      0.00000000	      0.00000000	      0.00000000
      3.55000000	     68.05296249	     -2.04082416	      4.26494837	      0.65313103	      1.01343818	     -0.21520400	     -6.43374519	     -2.93128242	      6.81685941	    -32.21296008	    -14.14596880	     30.80063203	     61.41038072	     -7.69460990	    -14.85105266	      6.67964845	    -61.04882054	    -10.03451797	     30.12281530	     26.67013341	      0.00000000	      0.00000000	      0.00000000
      3.56000000	     68.00372477	     -1.99594628	      4.30963155	      0.65330003	      1.01335647	     -0.21504980	     -6.53115587	     -3.14832545	      6.06739049	    -33.61965273	    -14.37958257	     31.67422746	     62.84272826	     -7.61959429	    -14.85142920	      6.72213925	    -61.07805201	    -10.01349387	     30.14051413	     26.66810799	      0.00000000	      0.00000000	      0.00000000
      3.57000000	     67.96169388	     -1.94388461	      4.35621601	      0.65347730	      1.01328404	     -0.21489321	     -6.64790302	     -3.42193903	      5.33705555	    -35.12138059	    -14.66486836	     32.47965482	     64.61121242	     -7.55527327	    -14.84131814	      6.76367393	    -61.10659371	     -9.97751206	     30.15955022	     26.64370039	      0.00000000	      0.00000000	      0.00000000
      3.58000000	     67.92715933	     -1.88672602	      4.39818662	      0.65367333	      1.01325827	     -0.21477008	     -6.80373920	     -3.75536048	      4.64083022	    -36.67600249	    -14.99101888	     33.17974141	     66.72529155	     -7.50965776	    -14.81518680	      6.79735291	    -61.13439541	     -9.92586010	     30.17818668	     26.59496972	      0.00000000	      0.00000000	      0.00000000
      3.59000000	     67.89919356	     -1.82561627	      4.42690559	      0.65384563	      1.01330592	     -0.21469161	     -7.00923414	     -4.15013522	      3.98762795	    -38.23311007	    -15.34277157	     33.74265759	     69.16861473	     -7.48764939	    -14.76835412	      6.81564881	    -61.16545617	     -9.86032101	     30.19536370	     26.52170715	      0.00000000	      0.00000000	      0.00000000
      3.60000000	     67.87987153	     -1.75908896	      4.43423913	      0.65396596	      1.01340736	     -0.21464084	     -7.26076719	     -4.60315896	      3.38226955	    -39.74519849	    -15.70319366	     34.14518025	     71.89518785	     -7.49107187	    -14.69912894	      6.81296983	    -61.20612966	     -9.78580844	     30.21082180	     26.42596900	      0.00000000	      0.00000000	      0.00000000
      3.61000000	     67.87479108	     -1.68427805	      4.41582861	      0.65412320	      1.01346943	     -0.21460811	     -7.54270601	     -5.10494593	      2.82988548	    -41.18424438	    -16.05724635	     34.37542824	     74.82844100	     -7.51821512	    -14.61019916	      6.78797213	    -61.26170971	     -9.71040233	     30.22503690	     26.31259860	      0.00000000	      0.00000000	      0.00000000
      3.62000000	     67.88786047	     -1.60183914	      4.37421076	      0.65444100	      1.01339358	     -0.21460352	     -7.83721201	     -5.64105895	      2.34136600	    -42.55792627	    -16.39504663	     34.43437601	     77.86396774	     -7.56328128	    -14.50871465	      6.74472889	    -61.33312122	     -9.64448435	     30.23897536	     26.18973495	      0.00000000	      0.00000000	      0.00000000
      3.63000000	     67.91535453	     -1.52065415	      4.31979716	      0.65484361	      1.01321714	     -0.21462427	     -8.13381469	     -6.19564055	      1.93650218	    -43.91444039	    -16.71345932	     34.33563613	     80.87617979	     -7.61727834	    -14.40503257	      6.69203139	    -61.41619296	     -9.59885916	     30.25371329	     26.06927624	      0.00000000	      0.00000000	      0.00000000
      3.64000000	     67.94842705	     -1.45523908	      4.26733430	      0.65509241	      1.01309396	     -0.21464750	     -8.42797526	     -6.75282524	      1.64136592	    -45.32656721	    -17.01509249	     34.10343932	     83.72838095	     -7.67124063	    -14.31059848	      6.64081436	    -61.50428532	     -9.58204466	     30.26997686	     25.96714595	      0.00000000	      0.00000000	      0.00000000
      3.65000000	     67.98263742	     -1.41683286	      4.22924780	      0.65511491	      1.01309830	     -0.21466766	     -8.71069466	     -7.29554729	      1.48096430	    -46.86194323	    -17.30531432	     33.76922219	     86.28501336	     -7.72033944	    -14.23573116	      6.60064075	    -61.59190740	     -9.59725320	     30.28765871	     25.90306060	      0.00000000	      0.00000000	      0.00000000
      3.66000000	     68.02140859	     -1.40826155	      4.21067454	      0.65507523	      1.01316394	     -0.21470371	     -8.96408069	     -7.80642592	      1.47230945	    -48.56041454	    -17.58912619	     33.36753284	     88.42433878	     -7.76613945	    -14.18804243	      6.57665163	    -61.67553906	     -9.63985610	     30.30538758	     25.89946368	      0.00000000	      0.00000000	      0.00000000
      3.67000000	     68.06964006	     -1.42651963	      4.20856473	      0.65511997	      1.01321226	     -0.21475927	     -9.16829531	     -8.27208484	      1.62083093	    -50.42941309	    -17.86907365	     32.93198797	     90.04974602	     -7.81575533	    -14.17191732	      6.56806916	    -61.75007077	     -9.69622326	     30.32028465	     25.97945200	      0.00000000	      0.00000000	      0.00000000
      3.68000000	     68.12673800	     -1.46736356	      4.21433548	      0.65519968	      1.01325926	     -0.21479844	     -9.31052486	     -8.68699350	      1.91965866	    -52.45150278	    -18.14413202	     32.49177876	     91.09820069	     -7.87923499	    -14.18895660	      6.56854381	    -61.80319506	     -9.74468278	     30.32808197	     26.16381273	      0.00000000	      0.00000000	      0.00000000
      3.69000000	     68.18716558	     -1.52664342	      4.21924260	      0.65514537	      1.01338874	     -0.21477159	     -9.38678718	     -9.05348552	      2.35107589	    -54.59416697	    -18.40922564	     32.06899398	     91.54493093	     -7.96700022	    -14.23853640	      6.56790682	    -61.81207692	     -9.75893737	     30.32374309	     26.46757155	      0.00000000	      0.00000000	      0.00000000
      3.70000000	     68.24683531	     -1.59907301	      4.22025291	      0.65492038	      1.01358897	     -0.21466661	     -9.39800894	     -9.37846988	      2.88967705	    -56.81738576	    -18.65544122	     31.67696312	     91.40410812	     -8.08760998	    -14.31736171	      6.55462663	    -61.74559631	     -9.71364666	     30.30258903	     26.89664806	      0.00000000	      0.00000000	      0.00000000
      3.71000000	     68.30621058	     -1.67915928	      4.22298046	      0.65474036	      1.01366561	     -0.21453116	     -9.34933601	     -9.67077997	      3.50664184	    -59.08066815	    -18.87125513	     31.31975810	     90.72590661	     -8.24530356	    -14.41811096	      6.51860747	    -61.57316224	     -9.59112278	     30.26171278	     27.44532853	      0.00000000	      0.00000000	      0.00000000
      3.72000000	     68.36520688	     -1.76559880	      4.23924240	      0.65476295	      1.01352642	     -0.21441327	     -9.25591434	     -9.94225682	      4.17395756	    -61.34936063	    -19.04467543	     30.99283496	     89.59080452	     -8.43792884	    -14.52922765	      6.45432853	    -61.27869885	     -9.38736162	     30.20125332	     28.09527216	      0.00000000	      0.00000000	      0.00000000
